<svg xmlns="http://www.w3.org/2000/svg" viewBox="0 0 32 32" aria-hidden="true">
  <!-- Red tile + white B (matches Blind 75 mark); pink offset behind arcs -->
  <defs>
    <linearGradient id="bl75bg" x1="0" y1="0" x2="0" y2="1">
      <stop offset="0" stop-color="#ef5350"/>
      <stop offset="1" stop-color="#c62828"/>
    </linearGradient>
  </defs>
  <rect width="32" height="32" rx="7" fill="url(#bl75bg)"/>
  <!-- soft pink shadow (offset behind white bowls) -->
  <g fill="#f48fb1" opacity="0.5" transform="translate(0.5 0.55)">
    <path d="M 10.78 5.28 A 10.05 9.72 0 0 1 10.78 15.72 Z"/>
    <path d="M 10.78 16.28 A 10.05 9.72 0 0 1 10.78 26.72 Z"/>
  </g>
  <!-- triple stem -->
  <g fill="#ffffff">
    <rect x="4.85" y="5.15" width="1.58" height="21.7" rx="0.32"/>
    <rect x="6.98" y="5.15" width="1.58" height="21.7" rx="0.32"/>
    <rect x="9.11" y="5.15" width="1.58" height="21.7" rx="0.32"/>
  </g>
  <!-- upper bowl: white / red / white rings + red bullseye -->
  <path fill="#ffffff" d="M 10.72 5.18 A 10.15 9.82 0 0 1 10.72 15.82 Z"/>
  <path fill="#c62828" d="M 10.88 7.38 A 8 7.7 0 0 1 10.88 13.62 Z"/>
  <path fill="#ffffff" d="M 11 8.62 A 6.85 6.6 0 0 1 11 12.38 Z"/>
  <path fill="#c62828" d="M 11.1 9.55 A 5.75 5.55 0 0 1 11.1 11.45 Z"/>
  <circle cx="20.15" cy="10.5" r="1.22" fill="#c62828"/>
  <!-- lower bowl -->
  <path fill="#ffffff" d="M 10.72 16.18 A 10.15 9.82 0 0 1 10.72 26.82 Z"/>
  <path fill="#c62828" d="M 10.88 18.38 A 8 7.7 0 0 1 10.88 24.62 Z"/>
  <path fill="#ffffff" d="M 11 19.62 A 6.85 6.6 0 0 1 11 23.38 Z"/>
  <path fill="#c62828" d="M 11.1 20.55 A 5.75 5.55 0 0 1 11.1 22.45 Z"/>
  <circle cx="20.15" cy="21.5" r="1.22" fill="#c62828"/>
</svg>
