<svg xmlns="http://www.w3.org/2000/svg" width="1457" height="673" viewBox="0 0 1457 673" role="img" aria-labelledby="title desc">
  <title id="title">Splitwise End-to-End Flow</title>
  <desc id="desc">Sequence flow among User, Splitwise, ExpenseController, SplitFactory, ExpenseSplit, BalanceSheetController, and UserExpenseBalanceSheet.</desc>

  <defs>
    <marker id="arrow-solid" viewBox="0 0 10 10" refX="9" refY="5" markerWidth="7" markerHeight="7" orient="auto">
      <path d="M 0 0 L 10 5 L 0 10 z" fill="#e9edf3" />
    </marker>
    <marker id="arrow-dashed" viewBox="0 0 10 10" refX="9" refY="5" markerWidth="7" markerHeight="7" orient="auto">
      <path d="M 0 0 L 10 5 L 0 10 z" fill="#cfd4dd" />
    </marker>
    <style>
      .bg { fill: #0d1118; }
      .box { fill: #242424; stroke: #b5b5b5; stroke-width: 1.2; }
      .label { fill: #f1f3f6; font: 600 14px 'Segoe UI', Tahoma, sans-serif; text-anchor: middle; dominant-baseline: middle; }
      .line { stroke: #d7dbe2; stroke-width: 1.8; }
      .msg { stroke: #e7ebf2; stroke-width: 1.8; fill: none; marker-end: url(#arrow-solid); }
      .msg-dashed { stroke: #cfd4dd; stroke-width: 1.6; stroke-dasharray: 4 4; fill: none; marker-end: url(#arrow-dashed); }
      .msg-text { fill: #eef1f5; font: 600 12px 'Segoe UI', Tahoma, sans-serif; text-anchor: middle; }
    </style>
  </defs>

  <rect class="bg" x="0" y="0" width="1457" height="673" />

  <!-- top boxes -->
  <rect class="box" x="48" y="24" width="129" height="58" rx="2" />
  <rect class="box" x="275" y="24" width="129" height="58" rx="2" />
  <rect class="box" x="444" y="24" width="132" height="58" rx="2" />
  <rect class="box" x="679" y="24" width="130" height="58" rx="2" />
  <rect class="box" x="911" y="24" width="131" height="58" rx="2" />
  <rect class="box" x="1026" y="24" width="161" height="58" rx="2" />
  <rect class="box" x="1264" y="24" width="187" height="58" rx="2" />

  <text class="label" x="112.5" y="53">User</text>
  <text class="label" x="339.5" y="53">Splitwise</text>
  <text class="label" x="510" y="53">ExpenseController</text>
  <text class="label" x="744" y="53">SplitFactory</text>
  <text class="label" x="976.5" y="53">ExpenseSplit</text>
  <text class="label" x="1106.5" y="53">BalanceSheetController</text>
  <text class="label" x="1357.5" y="53">UserExpenseBalanceSheet</text>

  <!-- lifelines -->
  <line class="line" x1="112.5" y1="82" x2="112.5" y2="568" />
  <line class="line" x1="339.5" y1="82" x2="339.5" y2="568" />
  <line class="line" x1="510" y1="82" x2="510" y2="568" />
  <line class="line" x1="744" y1="82" x2="744" y2="568" />
  <line class="line" x1="976.5" y1="82" x2="976.5" y2="568" />
  <line class="line" x1="1106.5" y1="82" x2="1106.5" y2="568" />
  <line class="line" x1="1357.5" y1="82" x2="1357.5" y2="568" />

  <!-- messages -->
  <line class="msg" x1="112.5" y1="121" x2="339.5" y2="121" />
  <text class="msg-text" x="226" y="109">Add expense (group/direct)</text>

  <line class="msg" x1="339.5" y1="160" x2="510" y2="160" />
  <text class="msg-text" x="424" y="152">createExpense(...)</text>

  <line class="msg" x1="510" y1="200" x2="744" y2="200" />
  <text class="msg-text" x="627" y="192">getSplitObject(splitType)</text>

  <line class="msg-dashed" x1="744" y1="239" x2="510" y2="239" />
  <text class="msg-text" x="627" y="229">ExpenseSplit implementation</text>

  <line class="msg" x1="510" y1="278" x2="976.5" y2="278" />
  <text class="msg-text" x="743" y="267">validateRequest(splitList, totalAmount)</text>

  <line class="msg-dashed" x1="976.5" y1="317" x2="510" y2="317" />
  <text class="msg-text" x="743" y="306">validation result</text>

  <line class="msg-dashed" x1="510" y1="356" x2="339.5" y2="356" />
  <text class="msg-text" x="424" y="345">Expense created</text>

  <line class="msg" x1="339.5" y1="395" x2="1106.5" y2="395" />
  <text class="msg-text" x="723" y="386">updateUserExpenseBalanceSheet(expense)</text>

  <line class="msg" x1="1106.5" y1="434" x2="1357.5" y2="434" />
  <text class="msg-text" x="1232" y="423">update balances (owe/getBack)</text>

  <line class="msg-dashed" x1="1357.5" y1="473" x2="1106.5" y2="473" />
  <text class="msg-text" x="1232" y="462">updated balances</text>

  <line class="msg-dashed" x1="1106.5" y1="512" x2="339.5" y2="512" />
  <text class="msg-text" x="723" y="501">balance sheet updated</text>

  <line class="msg-dashed" x1="339.5" y1="551" x2="112.5" y2="551" />
  <text class="msg-text" x="226" y="540">showBalanceSheetOfUser</text>

  <!-- bottom boxes -->
  <rect class="box" x="48" y="569" width="129" height="58" rx="2" />
  <rect class="box" x="275" y="569" width="129" height="58" rx="2" />
  <rect class="box" x="444" y="569" width="132" height="58" rx="2" />
  <rect class="box" x="679" y="569" width="130" height="58" rx="2" />
  <rect class="box" x="911" y="569" width="131" height="58" rx="2" />
  <rect class="box" x="1026" y="569" width="161" height="58" rx="2" />
  <rect class="box" x="1264" y="569" width="187" height="58" rx="2" />

  <text class="label" x="112.5" y="598">User</text>
  <text class="label" x="339.5" y="598">Splitwise</text>
  <text class="label" x="510" y="598">ExpenseController</text>
  <text class="label" x="744" y="598">SplitFactory</text>
  <text class="label" x="976.5" y="598">ExpenseSplit</text>
  <text class="label" x="1106.5" y="598">BalanceSheetController</text>
  <text class="label" x="1357.5" y="598">UserExpenseBalanceSheet</text>
</svg>
